<svg width="564.1999999999999px" height="131.63999023437498px" xmlns="http://www.w3.org/2000/svg" viewBox="-32.099999999999966 9.180004882812511 564.1999999999999 131.63999023437498" style="background: rgba(0, 0, 0, 0) none repeat scroll 0% 0%;" preserveAspectRatio="xMidYMid"><defs><filter id="editing-hole" x="-100%" y="-100%" width="300%" height="300%"><feFlood flood-color="#000" result="black"></feFlood><feMorphology operator="dilate" radius="2" in="SourceGraphic" result="erode"></feMorphology><feGaussianBlur in="erode" stdDeviation="4" result="blur"></feGaussianBlur><feOffset in="blur" dx="2" dy="2" result="offset"></feOffset><feComposite operator="atop" in="offset" in2="black" result="merge"></feComposite><feComposite operator="in" in="merge" in2="SourceGraphic" result="inner-shadow"></feComposite></filter></defs><g filter="url(#editing-hole)"><g transform="translate(50.64206886291504, 106.23500061035156)"><path d="M21.57 0.19L21.57 0.19L21.57 0.19Q19.58 0.58 17.60 0.58L17.60 0.58L17.60 0.58Q11.14 0.58 7.36-3.58L7.36-3.58L7.36-3.58Q4.74-6.53 4.74-11.07L4.74-11.07L4.74-11.07Q4.74-20.86 13.57-28.99L13.57-28.99L13.57-28.99Q23.42-37.76 37.57-37.76L37.57-37.76L37.57-37.76Q41.60-37.76 44.54-36.22L44.54-36.22L44.54-36.22Q46.91-34.94 46.91-32.38L46.91-32.38L46.91-32.38Q46.91-31.30 46.27-31.17L46.27-31.17L46.27-31.17Q45.44-30.98 45.38-32.13L45.38-32.13L45.38-32.13Q45.12-36.35 38.85-36.35L38.85-36.35L38.85-36.35Q36.03-36.35 31.90-34.98L31.90-34.98L31.90-34.98Q27.78-33.60 23.36-31.04L23.36-31.04L23.36-31.04Q18.94-28.48 15.10-25.38L15.10-25.38L15.10-25.38Q11.26-22.27 8.80-18.37L8.80-18.37L8.80-18.37Q6.34-14.46 6.34-10.56L6.34-10.56L6.34-10.56Q6.34-6.66 9.06-4.58L9.06-4.58L9.06-4.58Q11.78-2.50 15.74-2.50L15.74-2.50L15.74-2.50Q20.10-2.50 25.86-4.03L25.86-4.03L25.86-4.03Q29.06-4.99 31.94-6.75L31.94-6.75L31.94-6.75Q34.82-8.51 36.35-9.86L36.35-9.86L36.35-9.86Q39.23-12.29 42.18-15.23L42.18-15.23L42.18-15.23Q43.71-19.14 47.23-19.78L47.23-19.78L47.23-19.78Q48.70-20.03 50.43-19.78L50.43-19.78L51.20-19.65L51.20-19.65Q51.78-19.52 51.78-19.33L51.78-19.33L51.78-19.33Q51.78-18.69 50.94-18.75L50.94-18.75L50.94-18.75Q50.88-18.75 50.82-18.75L50.82-18.75L50.82-18.75Q47.36-18.75 45.12-12.29L45.12-12.29L45.12-12.29Q43.39-7.10 41.86-3.01L41.86-3.01L41.86-3.01Q45.25-3.78 46.34-3.78L46.34-3.78L46.34-3.78Q47.42-3.78 47.87-3.52L47.87-3.52L47.87-3.52Q48.32-3.26 48.03-2.94L48.03-2.94L48.03-2.94Q47.74-2.62 47.46-2.75L47.46-2.75L47.46-2.75Q47.17-2.88 46.43-2.88L46.43-2.88L46.43-2.88Q45.70-2.88 43.55-2.34L43.55-2.34L43.55-2.34Q41.41-1.79 41.02-0.77L41.02-0.77L41.02-0.77Q34.62 15.42 25.54 21.76L25.54 21.76L25.54 21.76Q21.44 24.58 18.24 24.58L18.24 24.58L18.24 24.58Q17.02 24.58 15.94 24.19L15.94 24.19L15.94 24.19Q12.99 23.10 12.99 19.84L12.99 19.84L12.99 19.84Q12.99 15.94 17.02 11.33L17.02 11.33L17.02 11.33Q24.83 2.30 38.34-2.05L38.34-2.05L38.34-2.05Q40-7.10 41.41-12.10L41.41-12.10L41.41-12.10Q29.95-1.28 21.57 0.19ZM16.45 18.94L16.45 18.94L16.45 18.94Q16.45 19.65 16.64 20.35L16.64 20.35L16.64 20.35Q17.28 22.85 19.84 22.85L19.84 22.85L19.84 22.85Q23.62 22.85 27.78 17.79L27.78 17.79L27.78 17.79Q33.98 10.05 37.89-0.83L37.89-0.83L37.89-0.83Q26.69 2.82 20.16 11.01L20.16 11.01L20.16 11.01Q16.45 15.55 16.45 18.94ZM66.94-7.04L66.94-7.04L66.94-7.04Q68.10-9.41 68.10-10.69L68.10-10.69L68.10-10.69Q68.10-11.97 67.81-12.70L67.81-12.70L67.81-12.70Q67.52-13.44 68.06-13.95L68.06-13.95L68.06-13.95Q68.61-14.46 69.44-14.34L69.44-14.34L69.44-14.34Q70.72-14.02 70.72-11.46L70.72-11.46L70.72-11.46Q70.72-8.90 67.71-4.74L67.71-4.74L67.71-4.74Q67.78-3.01 69.50-3.01L69.50-3.01L69.50-3.01Q71.23-3.01 74.75-6.72L74.75-6.72L74.75-6.72Q76.42-8.64 76.83-9.22L76.83-9.22L76.83-9.22Q77.25-9.79 77.57-9.63L77.57-9.63L77.57-9.63Q77.89-9.47 77.89-9.34L77.89-9.34L77.89-9.34Q77.89-8.70 75.58-6.02L75.58-6.02L75.58-6.02Q71.94-1.54 69.12-1.54L69.12-1.54L69.12-1.54Q67.26-1.54 66.50-3.14L66.50-3.14L66.50-3.14Q65.22-1.79 64-0.64L64-0.64L64-0.64Q61.50 1.47 58.43 1.47L58.43 1.47L58.43 1.47Q56.70 1.47 55.55 0.64L55.55 0.64L55.55 0.64Q53.31-0.70 53.31-4.16L53.31-4.16L53.31-4.16Q53.31-7.94 55.87-11.84L55.87-11.84L55.87-11.84Q57.34-14.14 59.33-15.87L59.33-15.87L59.33-15.87Q62.46-18.62 65.28-18.62L65.28-18.62L65.28-18.62Q65.98-18.62 66.62-18.43L66.62-18.43L66.62-18.43Q68.54-17.79 68.54-16L68.54-16L68.54-16Q68.54-14.53 67.78-14.53L67.78-14.53L67.78-14.53Q67.46-14.66 67.46-15.49L67.46-15.49L67.46-15.49Q67.46-16.64 66.18-16.64L66.18-16.64L66.18-16.64Q63.94-16.64 60.42-12.54L60.42-12.54L60.42-12.54Q56.90-8.45 56.19-4.29L56.19-4.29L56.19-4.29Q56.06-3.58 56.06-2.72L56.06-2.72L56.06-2.72Q56.06-1.86 56.64-0.74L56.64-0.74L56.64-0.74Q57.22 0.38 58.78 0.38L58.78 0.38L58.78 0.38Q60.35 0.38 62.21-1.02L62.21-1.02L62.21-1.02Q64.06-2.43 65.54-4.61L65.54-4.61L65.34-4.99L65.34-4.99Q65.09-6.02 65.60-6.66L65.60-6.66L65.60-6.66Q66.11-7.30 66.94-7.04ZM79.01-11.68L79.01-11.68L79.01-11.68Q81.86-14.21 84.93-16L84.93-16L84.93-16Q88.00-17.79 89.79-18.24L89.79-18.24L89.79-18.24Q91.58-18.69 93.31-18.69L93.31-18.69L93.31-18.69Q95.04-18.69 96.58-17.54L96.58-17.54L96.58-17.54Q105.34-37.89 113.34-37.89L113.34-37.89L113.34-37.89Q116.03-37.89 116.99-36.35L116.99-36.35L116.99-36.35Q117.44-35.58 117.44-35.01L117.44-35.01L117.44-35.01Q117.44-33.41 116.06-30.94L116.06-30.94L116.06-30.94Q114.69-28.48 111.81-25.54L111.81-25.54L111.81-25.54Q108.93-22.59 103.55-18.27L103.55-18.27L103.55-18.27Q98.18-13.95 97.60-13.44L97.60-13.44L97.60-13.44Q95.55-8.70 94.40-4.29L94.40-4.29L94.40-4.29Q93.25 0.13 93.25 2.30L93.25 2.30L93.25 2.30Q93.25 4.48 94.02 5.76L94.02 5.76L94.02 5.76Q94.40 6.59 95.17 6.75L95.17 6.75L95.17 6.75Q95.94 6.91 96.48 6.56L96.48 6.56L96.48 6.56Q97.02 6.21 97.31 5.95L97.31 5.95L97.31 5.95Q97.60 5.70 98.02 5.47L98.02 5.47L98.02 5.47Q98.43 5.25 98.62 5.38L98.62 5.38L98.62 5.38Q98.82 5.50 98.56 6.08L98.56 6.08L98.56 6.08Q98.05 6.72 97.60 7.17L97.60 7.17L97.60 7.17Q96.58 7.87 95.20 7.87L95.20 7.87L95.20 7.87Q93.82 7.87 93.38 7.81L93.38 7.81L93.38 7.81Q90.30 7.30 90.30 3.33L90.30 3.33L90.30 3.33Q90.30-0.51 91.33-3.78L91.33-3.78L91.33-3.78Q92.74-8.26 93.89-11.20L93.89-11.20L93.89-11.20Q83.65 0.70 79.36 0.70L79.36 0.70L79.36 0.70Q78.34 0.70 77.15 0.10L77.15 0.10L77.15 0.10Q75.97-0.51 75.14-1.63L75.14-1.63L75.14-1.63Q74.30-2.75 74.30-4.03L74.30-4.03L74.30-4.03Q74.30-5.31 74.88-6.46L74.88-6.46L74.88-6.46Q76.16-9.15 79.01-11.68ZM95.17-14.34L96.06-16.51L96.06-16.51Q95.30-16.90 93.38-16.90L93.38-16.90L93.38-16.90Q91.46-16.90 88.42-15.33L88.42-15.33L88.42-15.33Q85.38-13.76 82.69-11.39L82.69-11.39L82.69-11.39Q80.45-9.28 78.75-6.62L78.75-6.62L78.75-6.62Q77.06-3.97 77.06-2.75L77.06-2.75L77.06-2.75Q77.06-0.38 78.40-0.38L78.40-0.38L78.40-0.38Q79.74-0.38 82.50-2.56L82.50-2.56L82.50-2.56Q89.60-8.38 95.17-14.34L95.17-14.34ZM114.82-32.64L114.82-32.64L114.82-32.64Q115.65-34.18 115.65-35.23L115.65-35.23L115.65-35.23Q115.65-36.29 114.72-36.29L114.72-36.29L114.72-36.29Q113.79-36.29 112.26-35.14L112.26-35.14L112.26-35.14Q105.22-29.76 99.52-17.15L99.52-17.15L99.52-17.15Q103.68-19.84 108.22-24.32L108.22-24.32L108.22-24.32Q112.77-28.80 114.82-32.64ZM102.72-28.45L102.72-28.45L102.72-28.45Q102.78-28.80 103.23-29.12L103.23-29.12L103.23-29.12Q103.68-29.44 104.90-29.44L104.90-29.44L104.90-29.44Q106.11-29.44 106.11-28.35L106.11-28.35L106.11-28.35Q106.11-27.58 105.79-26.56L105.79-26.56L105.79-26.56Q105.47-25.54 105.34-25.06L105.34-25.06L105.34-25.06Q105.22-24.58 104.61-22.62L104.61-22.62L104.61-22.62Q104.00-20.67 103.74-19.71L103.74-19.71L103.74-19.71Q103.49-18.62 103.01-18.62L103.01-18.62L103.01-18.62Q102.53-18.62 102.53-19.39L102.53-19.39L102.78-25.79L102.78-25.79Q102.78-26.24 102.72-27.17L102.72-27.17L102.72-27.17Q102.66-28.10 102.72-28.45ZM110.08 0.64L110.08 0.64L110.08 0.64Q109.25 1.60 109.73 2.18L109.73 2.18L109.73 2.18Q110.21 2.75 110.82 2.75L110.82 2.75L110.82 2.75Q111.42 2.75 112.06 2.56L112.06 2.56L112.06 2.56Q114.82 1.73 117.41-0.74L117.41-0.74L117.41-0.74Q120.00-3.20 120.00-5.76L120.00-5.76L120.00-5.76Q120.00-7.17 116.86-8.83L116.86-8.83L116.86-8.83Q115.39-9.60 115.20-9.73L115.20-9.73L115.20-9.73Q113.47-10.88 113.02-12.03L113.02-12.03L113.02-12.03Q112.13-10.50 110.14-7.62L110.14-7.62L110.14-7.62Q109.70-7.10 109.31-7.39L109.31-7.39L109.31-7.39Q108.93-7.68 109.25-8.19L109.25-8.19L109.25-8.19Q111.87-11.78 112.70-14.21L112.70-14.21L112.70-14.21Q113.15-17.73 117.82-20.54L117.82-20.54L117.82-20.54Q122.50-23.36 126.34-23.36L126.34-23.36L126.34-23.36Q128.77-23.36 129.76-22.50L129.76-22.50L129.76-22.50Q130.75-21.63 130.75-20.80L130.75-20.80L130.75-20.80Q130.75-19.97 130.27-18.88L130.27-18.88L130.27-18.88Q129.79-17.79 128.32-16.83L128.32-16.83L128.32-16.83Q127.94-16.58 127.68-16.96L127.68-16.96L127.68-16.96Q127.55-17.34 128.22-18.02L128.22-18.02L128.22-18.02Q128.90-18.69 129.09-19.84L129.09-19.84L129.09-19.84Q129.28-20.99 128.06-21.25L128.06-21.25L128.06-21.25Q127.87-21.25 127.68-21.25L127.68-21.25L127.68-21.25Q125.18-21.25 121.44-19.39L121.44-19.39L121.44-19.39Q117.70-17.54 115.58-14.59L115.58-14.59L115.58-14.59Q114.75-13.50 114.75-12.38L114.75-12.38L114.75-12.38Q114.75-11.26 116.29-10.37L116.29-10.37L116.29-10.37Q116.93-9.98 118.46-9.15L118.46-9.15L118.46-9.15Q120.00-8.32 120.64-7.94L120.64-7.94L120.64-7.94Q121.28-7.55 122.18-6.72L122.18-6.72L122.18-6.72Q123.07-5.89 123.14-5.18L123.14-5.18L123.14-5.18Q123.46-3.26 121.34-0.96L121.34-0.96L121.34-0.96Q118.34 2.37 112.38 3.71L112.38 3.71L112.38 3.71Q111.04 4.03 109.66 4.03L109.66 4.03L109.66 4.03Q108.29 4.03 107.78 3.01L107.78 3.01L107.78 3.01Q107.58 2.75 107.58 2.21L107.58 2.21L107.58 2.21Q107.58 1.66 108.61 0.45L108.61 0.45L108.61 0.45Q109.57-0.51 111.68-1.41L111.68-1.41L111.68-1.41Q111.87-1.47 112.00-1.34L112.00-1.34L112.00-1.34Q112.13-1.22 112.06-1.02L112.06-1.02L112.06-1.02Q112.00-0.83 111.39-0.58L111.39-0.58L111.39-0.58Q110.78-0.32 110.08 0.64ZM185.73-21.57L185.73-21.57L185.73-21.57Q185.73-12.03 179.14-4.51L179.14-4.51L179.14-4.51Q172.54 3.01 164.48 4.86L164.48 4.86L164.48 4.86Q162.11 5.44 159.94 5.44L159.94 5.44L159.94 5.44Q153.98 5.44 150.08 1.02L150.08 1.02L150.08 1.02Q146.18-3.39 146.18-10.11L146.18-10.11L146.18-10.11Q146.18-19.01 152.26-24.83L152.26-24.83L152.26-24.83Q156.10-28.54 161.66-29.89L161.66-29.89L161.66-29.89Q163.33-30.21 164.74-30.21L164.74-30.21L164.74-30.21Q167.94-30.21 169.41-28.70L169.41-28.70L169.41-28.70Q170.88-27.20 170.24-27.20L170.24-27.20L169.22-27.71L169.22-27.71Q167.87-28.22 166.88-28.22L166.88-28.22L166.88-28.22Q165.89-28.22 165.18-28.03L165.18-28.03L165.18-28.03Q157.50-26.24 152.77-18.82L152.77-18.82L152.77-18.82Q149.12-13.06 149.12-7.23L149.12-7.23L149.12-7.23Q149.12 0.77 154.94 3.14L154.94 3.14L154.94 3.14Q156.86 3.97 159.14 3.97L159.14 3.97L159.14 3.97Q161.41 3.97 163.78 3.39L163.78 3.39L163.78 3.39Q168.06 2.43 172.48-1.95L172.48-1.95L172.48-1.95Q176.90-6.34 179.71-12.29L179.71-12.29L179.71-12.29Q182.53-18.24 182.53-23.42L182.53-23.42L182.53-23.42Q182.53-30.21 178.50-33.54L178.50-33.54L178.50-33.54Q175.10-36.22 169.60-36.22L169.60-36.22L169.60-36.22Q168.77-36.22 167.81-36.16L167.81-36.16L167.81-36.16Q160.70-35.71 154.69-31.36L154.69-31.36L154.69-31.36Q150.27-28.29 147.26-23.74L147.26-23.74L147.26-23.74Q144.26-19.20 143.94-14.72L143.94-14.72L143.94-14.72Q143.87-13.70 143.33-14.24L143.33-14.24L143.33-14.24Q142.78-14.78 142.78-15.87L142.78-15.87L142.78-15.87Q142.78-20.48 145.50-24.93L145.50-24.93L145.50-24.93Q148.22-29.38 152.77-32.64L152.77-32.64L152.77-32.64Q155.97-34.94 160.10-36.32L160.10-36.32L160.10-36.32Q164.22-37.70 168-37.76L168-37.76L168-37.76Q175.87-37.76 180.80-33.47L180.80-33.47L180.80-33.47Q185.73-29.18 185.73-21.57ZM197.41-16L197.41-16L197.41-16Q196.48-15.23 194.02-12L194.02-12L194.02-12Q191.55-8.77 190.62-6.27L190.62-6.27L190.62-6.27Q189.70-3.78 189.70-2.18L189.70-2.18L189.70-2.18Q189.70-0.58 191.07-0.58L191.07-0.58L191.07-0.58Q192.45-0.58 194.94-2.56L194.94-2.56L194.94-2.56Q198.98-5.89 204.03-14.91L204.03-14.91L204.03-14.91Q204.29-15.36 204.96-15.36L204.96-15.36L204.96-15.36Q205.63-15.36 206.82-15.01L206.82-15.01L206.82-15.01Q208-14.66 208-14.08L208-14.08L208-14.08Q208-13.89 207.87-13.70L207.87-13.70L207.87-13.70Q205.18-9.34 204.48-3.84L204.48-3.84L204.48-3.84Q204.22-1.98 205.12-0.83L205.12-0.83L205.12-0.83Q205.95 0.32 208.51-1.09L208.51-1.09L208.51-1.09Q212.48-3.07 215.78-7.30L215.78-7.30L215.78-7.30Q219.07-11.52 219.84-14.91L219.84-14.91L219.84-14.91Q220.10-15.62 220.10-16.45L220.10-16.45L220.10-16.45Q220.10-20.03 218.05-20.80L218.05-20.80L218.05-20.80Q217.47-21.06 216.77-20.96L216.77-20.96L216.77-20.96Q216.06-20.86 215.94-21.02L215.94-21.02L215.94-21.02Q215.81-21.18 215.87-21.38L215.87-21.38L215.87-21.38Q216-21.95 218.50-21.95L218.50-21.95L218.50-21.95Q222.66-21.95 222.66-17.66L222.66-17.66L222.66-17.66Q222.66-13.38 217.79-7.36L217.79-7.36L217.79-7.36Q214.72-3.71 210.56-0.64L210.56-0.64L210.56-0.64Q208.26 0.96 205.76 0.96L205.76 0.96L205.76 0.96Q202.50 0.96 201.73-1.47L201.73-1.47L201.73-1.47Q201.28-2.62 201.28-5.12L201.28-5.12L201.28-5.12Q201.28-7.62 201.92-9.22L201.92-9.22L201.92-9.22Q200.19-5.76 198.14-3.39L198.14-3.39L198.14-3.39Q196.10-1.02 194.66-0.16L194.66-0.16L194.66-0.16Q193.22 0.70 191.74 0.70L191.74 0.70L191.74 0.70Q189.18 0.70 188.16-0.67L188.16-0.67L188.16-0.67Q187.14-2.05 187.14-3.65L187.14-3.65L187.14-3.65Q187.14-5.76 188.06-8.22L188.06-8.22L188.06-8.22Q188.99-10.69 189.92-12.13L189.92-12.13L189.92-12.13Q190.85-13.57 192.35-15.58L192.35-15.58L192.35-15.58Q193.86-17.60 194.30-17.79L194.30-17.79L194.30-17.79Q195.26-18.05 196.13-18.05L196.13-18.05L196.13-18.05Q196.99-18.05 197.63-17.79L197.63-17.79L197.63-17.79Q198.27-17.54 198.30-17.15L198.30-17.15L198.30-17.15Q198.34-16.77 197.41-16ZM240.58-18.18L240.58-18.18L240.58-18.18Q242.05-18.18 242.05-16.61L242.05-16.61L242.05-16.61Q242.05-15.04 240.58-12.29L240.58-12.29L240.58-12.29Q239.10-9.54 238.40-7.81L238.40-7.81L238.40-7.81Q237.18-4.86 237.18-3.10L237.18-3.10L237.18-3.10Q237.18-1.34 237.70-0.77L237.70-0.77L237.70-0.77Q238.66 0.26 240.32-0.67L240.32-0.67L240.32-0.67Q241.98-1.60 244.96-4.26L244.96-4.26L244.96-4.26Q247.94-6.91 249.73-9.47L249.73-9.47L249.73-9.47Q249.98-9.79 250.34-9.63L250.34-9.63L250.34-9.63Q250.69-9.47 250.69-9.31L250.69-9.31L250.69-9.31Q250.69-9.15 250.56-8.96L250.56-8.96L250.56-8.96Q249.60-7.23 247.10-4.54L247.10-4.54L247.10-4.54Q244.61-1.86 242.30-0.22L242.30-0.22L242.30-0.22Q240 1.41 237.76 1.41L237.76 1.41L237.76 1.41Q235.58 1.34 234.69 0.42L234.69 0.42L234.69 0.42Q233.79-0.51 233.79-1.92L233.79-1.92L233.79-1.92Q233.79-3.33 234.05-4.64L234.05-4.64L234.05-4.64Q234.30-5.95 235.01-7.68L235.01-7.68L235.01-7.68Q236.16-10.43 237.02-11.97L237.02-11.97L237.02-11.97Q237.89-13.50 237.89-13.98L237.89-13.98L237.89-13.98Q237.89-14.46 237.38-14.46L237.38-14.46L237.38-14.46Q236.35-14.46 233.47-11.97L233.47-11.97L233.47-11.97Q231.49-10.11 227.62-4.96L227.62-4.96L227.62-4.96Q223.74 0.19 223.23 0.51L223.23 0.51L223.23 0.51Q220.93 1.66 220.35 1.66L220.35 1.66L220.35 1.66Q219.78 1.66 219.78 1.47L219.78 1.47L219.78 1.47Q219.78 1.28 219.90 0.93L219.90 0.93L219.90 0.93Q220.03 0.58 221.15-2.56L221.15-2.56L221.15-2.56Q222.27-5.70 223.58-9.44L223.58-9.44L223.58-9.44Q224.90-13.18 225.18-13.95L225.18-13.95L225.18-13.95Q225.47-14.72 225.57-15.26L225.57-15.26L225.57-15.26Q225.66-15.81 225.79-16.19L225.79-16.19L225.79-16.19Q225.92-16.58 226.27-17.06L226.27-17.06L226.27-17.06Q226.62-17.54 227.20-17.57L227.20-17.57L227.20-17.57Q227.78-17.60 228.67-17.44L228.67-17.44L228.67-17.44Q229.57-17.28 229.57-16.64L229.57-16.64L229.57-16.64Q229.57-16.19 228.86-14.69L228.86-14.69L228.86-14.69Q228.16-13.18 224.83-4.35L224.83-4.35L224.83-4.35Q227.14-7.17 230.66-10.85L230.66-10.85L230.66-10.85Q234.18-14.53 236.61-16.45L236.61-16.45L236.61-16.45Q239.04-18.18 240.58-18.18ZM262.59-23.87L262.59-23.87L262.59-23.87Q262.46-24.70 262.46-24.90L262.46-24.90L262.46-24.90Q263.36-29.70 271.87-34.05L271.87-34.05L271.87-34.05Q278.59-37.18 287.74-37.18L287.74-37.18L287.74-37.18Q293.38-37.18 298.88-35.65L298.88-35.65L298.88-35.65Q302.59-34.37 304.51-32L304.51-32L304.51-32Q306.43-29.63 306.43-27.20L306.43-27.20L306.43-27.20Q306.43-23.49 303.49-20.64L303.49-20.64L303.49-20.64Q300.54-17.79 296.90-16.26L296.90-16.26L296.90-16.26Q288.77-12.74 278.34-12.35L278.34-12.35L278.34-12.35Q279.17-11.33 281.02-8.99L281.02-8.99L281.02-8.99Q282.88-6.66 283.84-5.50L283.84-5.50L283.84-5.50Q284.80-4.35 286.62-2.27L286.62-2.27L286.62-2.27Q288.45-0.19 289.70 0.93L289.70 0.93L289.70 0.93Q290.94 2.05 292.86 3.62L292.86 3.62L292.86 3.62Q294.78 5.18 296.51 6.08L296.51 6.08L296.51 6.08Q302.53 9.28 307.01 9.28L307.01 9.28L309.18 9.09L309.18 9.09Q311.36 8.70 312.64 7.33L312.64 7.33L312.64 7.33Q313.92 5.95 313.92 4.29L313.92 4.29L313.92 4.29Q313.92 3.65 313.76 2.91L313.76 2.91L313.76 2.91Q313.60 2.18 314.18 2.18L314.18 2.18L314.18 2.18Q314.82 2.24 315.04 3.10L315.04 3.10L315.04 3.10Q315.26 3.97 315.26 5.25L315.26 5.25L315.26 5.25Q315.26 6.53 314.62 8.19L314.62 8.19L314.62 8.19Q313.92 10.50 310.72 11.71L310.72 11.71L310.72 11.71Q308.67 12.48 306.88 12.48L306.88 12.48L306.88 12.48Q301.50 12.48 296 9.47L296 9.47L296 9.47Q292.35 7.42 289.44 4.38L289.44 4.38L289.44 4.38Q286.53 1.34 284.58-1.09L284.58-1.09L284.58-1.09Q282.62-3.52 280.22-7.14L280.22-7.14L280.22-7.14Q277.82-10.75 276.86-11.97L276.86-11.97L276.42-12.03L276.42-12.03Q271.55-3.07 271.55-1.22L271.55-1.22L271.55-1.22Q271.55-0.26 272.38-0.26L272.38-0.26L272.38-0.26Q273.22-0.26 274.62-2.02L274.62-2.02L274.62-2.02Q276.03-3.78 276.54-3.71L276.54-3.71L276.54-3.71Q276.93-3.33 275.71-2.05L275.71-2.05L275.71-2.05Q275.58-1.92 275.26-1.38L275.26-1.38L275.26-1.38Q274.94-0.83 274.72-0.51L274.72-0.51L274.72-0.51Q274.50-0.19 274.11 0.32L274.11 0.32L274.11 0.32Q273.73 0.83 273.41 1.15L273.41 1.15L273.41 1.15Q273.09 1.47 272.70 1.79L272.70 1.79L272.70 1.79Q271.94 2.43 271.36 2.43L271.36 2.43L271.36 2.43Q270.78 2.43 269.76 2.21L269.76 2.21L269.76 2.21Q268.74 1.98 268.74 1.34L268.74 1.34L268.74 1.34Q268.74-1.54 273.98-12.03L273.98-12.03L273.98-12.03Q271.87-12.22 271.87-13.57L271.87-13.57L271.87-13.57Q271.87-13.82 271.94-14.21L271.94-14.21L271.94-14.21Q272.38-15.30 273.57-15.30L273.57-15.30L273.57-15.30Q274.75-15.30 275.46-14.72L275.46-14.72L275.46-14.72Q275.97-15.74 276.67-17.02L276.67-17.02L276.67-17.02Q279.17-21.50 279.17-22.72L279.17-22.72L279.17-22.72Q279.17-23.04 279.10-23.36L279.10-23.36L279.10-23.36Q279.36-25.15 282.21-28.06L282.21-28.06L282.21-28.06Q285.06-30.98 287.36-30.98L287.36-30.98L287.36-30.98Q288.13-30.98 289.41-30.40L289.41-30.40L289.41-30.40Q290.69-29.82 290.94-28.80L290.94-28.80L290.94-28.80Q291.01-28.35 290.98-28.26L290.98-28.26L290.98-28.26Q290.94-28.16 290.62-28.29L290.62-28.29L290.62-28.29Q290.30-28.42 290.24-28.42L290.24-28.42L290.24-28.42Q285.76-28.42 277.44-13.89L277.44-13.89L277.44-13.89Q278.21-13.57 278.94-13.57L278.94-13.57L278.94-13.57Q279.68-13.57 280.19-13.63L280.19-13.63L280.19-13.63Q286.72-14.34 292.96-16.70L292.96-16.70L292.96-16.70Q299.20-19.07 302.66-22.66L302.66-22.66L302.66-22.66Q304.90-24.83 304.90-27.26L304.90-27.26L304.90-27.26Q304.90-34.43 290.24-34.43L290.24-34.43L290.24-34.43Q281.86-34.43 274.24-31.87L274.24-31.87L274.24-31.87Q270.27-30.46 267.49-28.10L267.49-28.10L267.49-28.10Q264.70-25.73 264.19-22.72L264.19-22.72L264.19-22.72Q264.13-22.40 264.13-21.89L264.13-21.89L264.13-21.89Q264.13-21.38 264.54-20.64L264.54-20.64L264.54-20.64Q264.96-19.90 265.54-19.52L265.54-19.52L265.54-19.52Q266.11-19.14 267.17-18.62L267.17-18.62L267.17-18.62Q268.22-18.11 268.58-17.86L268.58-17.86L268.58-17.86Q268.93-17.60 268.74-17.31L268.74-17.31L268.74-17.31Q268.54-17.02 267.90-17.15L267.90-17.15L267.90-17.15Q265.92-17.47 264.19-19.14L264.19-19.14L264.19-19.14Q262.46-20.80 262.46-22.72L262.46-22.72L262.46-22.72Q262.46-23.30 262.59-23.87ZM312.26-18.62L312.26-18.62L312.26-18.62Q315.71-18.62 315.71-15.30L315.71-15.30L315.71-15.30Q315.71-13.57 314.75-12.48L314.75-12.48L314.75-12.48Q313.15-10.11 309.57-8.35L309.57-8.35L309.57-8.35Q305.98-6.59 303.49-6.40L303.49-6.40L303.49-6.40Q302.59-6.34 302.53-6.91L302.53-6.91L302.53-6.91Q302.46-7.17 302.69-7.23L302.69-7.23L302.69-7.23Q302.91-7.30 303.04-7.30L303.04-7.30L303.04-7.30Q304.51-7.42 306.82-8.70L306.82-8.70L306.82-8.70Q311.10-11.01 313.09-13.44L313.09-13.44L313.09-13.44Q313.92-14.59 313.92-15.65L313.92-15.65L313.92-15.65Q313.92-16.70 312.90-16.70L312.90-16.70L312.90-16.70Q312.06-16.70 310.66-16L310.66-16L310.66-16Q307.65-14.59 304.32-11.10L304.32-11.10L304.32-11.10Q300.99-7.62 299.97-4.29L299.97-4.29L299.97-4.29Q299.65-3.26 299.65-2.27L299.65-2.27L299.65-2.27Q299.65-1.28 300.48-0.38L300.48-0.38L300.48-0.38Q301.31 0.51 303.04 0.51L303.04 0.51L303.04 0.51Q304.96 0.51 307.46-0.51L307.46-0.51L307.46-0.51Q314.69-3.46 318.59-9.41L318.59-9.41L318.59-9.41Q318.98-9.92 319.30-9.60L319.30-9.60L319.30-9.60Q319.55-9.47 319.55-9.28L319.55-9.28L319.55-9.28Q319.55-9.09 319.36-8.83L319.36-8.83L319.36-8.83Q317.44-5.63 314.50-3.14L314.50-3.14L314.50-3.14Q308.80 1.73 303.42 1.73L303.42 1.73L303.42 1.73Q298.82 1.73 296.96-1.02L296.96-1.02L296.96-1.02Q296.26-2.11 296.26-3.65L296.26-3.65L296.26-3.65Q296.26-5.18 297.09-7.30L297.09-7.30L297.09-7.30Q298.69-10.94 303.94-14.78L303.94-14.78L303.94-14.78Q309.18-18.62 312.26-18.62ZM333.95-14.08L333.95-14.08L334.27-15.36L334.27-15.36Q334.27-16.64 333.31-16.64L333.31-16.64L333.31-16.64Q330.69-16.64 326.14-12.54L326.14-12.54L326.14-12.54Q321.60-8.45 320.38-4.29L320.38-4.29L320.38-4.29Q320.06-3.20 320.06-2.34L320.06-2.34L320.06-2.34Q320.06-1.47 320.45-0.90L320.45-0.90L320.45-0.90Q321.22 0.26 322.82 0.26L322.82 0.26L322.82 0.26Q324.42 0.26 326.27-0.19L326.27-0.19L326.27-0.19Q330.37-1.34 333.09-3.49L333.09-3.49L333.09-3.49Q335.81-5.63 338.82-9.47L338.82-9.47L338.82-9.47Q339.07-9.79 339.42-9.66L339.42-9.66L339.42-9.66Q339.78-9.54 339.78-9.31L339.78-9.31L339.78-9.31Q339.78-9.09 339.58-8.64L339.58-8.64L339.58-8.64Q336.51-4.48 333.15-1.89L333.15-1.89L333.15-1.89Q329.79 0.70 325.38 1.47L325.38 1.47L325.38 1.47Q324.10 1.66 323.01 1.66L323.01 1.66L323.01 1.66Q319.87 1.66 318.24 0.13L318.24 0.13L318.24 0.13Q316.61-1.41 316.61-3.26L316.61-3.26L316.61-3.26Q316.61-5.12 317.50-7.30L317.50-7.30L317.50-7.30Q319.10-10.94 324.35-14.78L324.35-14.78L324.35-14.78Q329.60-18.62 332.67-18.62L332.67-18.62L332.67-18.62Q333.44-18.62 334.14-18.43L334.14-18.43L334.14-18.43Q335.94-17.79 335.94-16.38L335.94-16.38L335.94-16.38Q335.94-15.42 335.23-14.21L335.23-14.21L335.23-14.21Q334.53-12.99 334.18-13.34L334.18-13.34L334.18-13.34Q333.82-13.70 333.95-14.08ZM344.19-17.73L344.19-17.73L344.19-17.73Q345.79-17.73 346.11-16.70L346.11-16.70L346.11-16.70Q346.24-16.13 345.95-15.58L345.95-15.58L345.95-15.58Q345.66-15.04 345.54-14.72L345.54-14.72L345.54-14.72Q345.41-14.40 345.34-14.21L345.34-14.21L345.34-14.21Q345.02-13.57 344.70-12.99L344.70-12.99L344.70-12.99Q341.06-5.70 340.86-3.71L340.86-3.71L340.86-3.71Q340.80-3.14 340.80-2.24L340.80-2.24L340.80-2.24Q340.80-1.34 341.31-0.77L341.31-0.77L341.31-0.77Q342.21 0.26 343.87-0.64L343.87-0.64L343.87-0.64Q345.54-1.54 348.51-4.22L348.51-4.22L348.51-4.22Q351.49-6.91 353.34-9.47L353.34-9.47L353.34-9.47Q353.60-9.79 353.92-9.63L353.92-9.63L353.92-9.63Q354.24-9.47 354.24-9.31L354.24-9.31L354.24-9.31Q354.24-9.15 354.11-8.96L354.11-8.96L354.11-8.96Q353.15-7.23 350.66-4.54L350.66-4.54L350.66-4.54Q346.56-0.13 343.81 0.90L343.81 0.90L343.81 0.90Q342.21 1.47 341.12 1.47L341.12 1.47L341.12 1.47Q338.56 1.47 337.73-0.96L337.73-0.96L337.73-0.96Q337.60-1.41 337.60-2.05L337.60-2.05L337.60-2.05Q337.60-4.29 339.65-8.83L339.65-8.83L339.65-8.83Q339.33-8.13 337.15-5.63L337.15-5.63L337.15-5.63Q336.58-4.99 336.26-5.63L336.26-5.63L336.26-5.63Q336.19-5.76 336.19-5.98L336.19-5.98L336.19-5.98Q336.19-6.21 336.45-6.53L336.45-6.53L336.45-6.53Q339.58-10.43 341.38-13.12L341.38-13.12L341.38-13.12Q341.25-13.44 341.50-13.95L341.50-13.95L341.50-13.95Q342.78-17.54 343.74-17.73L343.74-17.73L343.74-17.73Q343.94-17.73 344.19-17.73ZM349.25-26.24L349.25-26.24L348.74-24.19L348.74-24.19Q348.74-23.62 347.90-22.34L347.90-22.34L347.90-22.34Q347.07-21.06 346.62-21.06L346.62-21.06L346.62-21.06Q343.87-21.06 343.87-22.40L343.87-22.40L343.87-22.40Q343.87-22.66 346.62-24.77L346.62-24.77L347.71-25.60L347.71-25.60Q348.74-26.50 348.99-26.50L348.99-26.50L348.99-26.50Q349.25-26.50 349.25-26.24ZM372.54-13.31L372.54-13.31L372.54-13.31Q372.54-10.50 370.24-7.58L370.24-7.58L370.24-7.58Q367.94-4.67 364.80-2.50L364.80-2.50L364.80-2.50Q361.92-0.64 358.94 0.38L358.94 0.38L358.94 0.38Q355.97 1.41 354.46 1.41L354.46 1.41L354.46 1.41Q352.96 1.41 352 1.09L352 1.09L352 1.09Q350.59 4.35 348.10 12.03L348.10 12.03L348.10 12.03Q347.84 12.86 347.81 14.11L347.81 14.11L347.81 14.11Q347.78 15.36 347.04 17.50L347.04 17.50L347.04 17.50Q346.30 19.65 345.60 20.93L345.60 20.93L345.60 20.93Q345.28 21.70 343.74 22.18L343.74 22.18L343.74 22.18Q342.21 22.66 341.57 22.66L341.57 22.66L341.57 22.66Q340.93 22.66 340.93 22.02L340.93 22.02L340.93 22.02Q340.93 21.76 341.12 21.31L341.12 21.31L341.12 21.31Q344.06 15.30 348.54 3.62L348.54 3.62L348.54 3.62Q353.02-8.06 353.47-9.34L353.47-9.34L353.47-9.34Q353.92-10.62 354.75-13.06L354.75-13.06L354.75-13.06Q356.16-17.15 356.29-19.20L356.29-19.20L356.29-19.20Q356.29-19.97 358.34-19.97L358.34-19.97L358.34-19.97Q360.38-19.97 360.38-18.50L360.38-18.50L360.38-18.50Q360.38-17.41 359.14-15.46L359.14-15.46L359.14-15.46Q357.89-13.50 355.46-7.68L355.46-7.68L355.46-7.68Q359.17-13.31 361.47-15.04L361.47-15.04L361.47-15.04Q364.54-17.54 367.42-17.54L367.42-17.54L367.42-17.54Q368.58-17.54 369.73-17.15L369.73-17.15L369.73-17.15Q372.22-16.26 372.48-14.27L372.48-14.27L372.48-14.27Q372.54-13.76 372.54-13.31ZM369.41-14.21L369.41-14.21L369.41-14.21Q369.41-16.45 367.68-16.45L367.68-16.45L367.68-16.45Q366.66-16.45 364.35-15.23L364.35-15.23L364.35-15.23Q362.05-14.02 359.74-11.58L359.74-11.58L359.74-11.58Q357.44-9.15 356.19-7.01L356.19-7.01L356.19-7.01Q354.94-4.86 353.86-2.59L353.86-2.59L353.86-2.59Q352.77-0.32 352.58 0.06L352.58 0.06L352.58 0.06Q356.48 0.06 361.15-3.33L361.15-3.33L361.15-3.33Q365.82-6.72 368.13-10.69L368.13-10.69L368.13-10.69Q369.41-12.67 369.41-14.21ZM390.98-18.62L390.98-18.62L390.98-18.62Q394.43-18.62 394.43-15.30L394.43-15.30L394.43-15.30Q394.43-13.57 393.47-12.48L393.47-12.48L393.47-12.48Q391.87-10.11 388.29-8.35L388.29-8.35L388.29-8.35Q384.70-6.59 382.21-6.40L382.21-6.40L382.21-6.40Q381.31-6.34 381.25-6.91L381.25-6.91L381.25-6.91Q381.18-7.17 381.41-7.23L381.41-7.23L381.41-7.23Q381.63-7.30 381.76-7.30L381.76-7.30L381.76-7.30Q383.23-7.42 385.54-8.70L385.54-8.70L385.54-8.70Q389.82-11.01 391.81-13.44L391.81-13.44L391.81-13.44Q392.64-14.59 392.64-15.65L392.64-15.65L392.64-15.65Q392.64-16.70 391.62-16.70L391.62-16.70L391.62-16.70Q390.78-16.70 389.38-16L389.38-16L389.38-16Q386.37-14.59 383.04-11.10L383.04-11.10L383.04-11.10Q379.71-7.62 378.69-4.29L378.69-4.29L378.69-4.29Q378.37-3.26 378.37-2.27L378.37-2.27L378.37-2.27Q378.37-1.28 379.20-0.38L379.20-0.38L379.20-0.38Q380.03 0.51 381.76 0.51L381.76 0.51L381.76 0.51Q383.68 0.51 386.18-0.51L386.18-0.51L386.18-0.51Q393.41-3.46 397.31-9.41L397.31-9.41L397.31-9.41Q397.70-9.92 398.02-9.60L398.02-9.60L398.02-9.60Q398.27-9.47 398.27-9.28L398.27-9.28L398.27-9.28Q398.27-9.09 398.08-8.83L398.08-8.83L398.08-8.83Q396.16-5.63 393.22-3.14L393.22-3.14L393.22-3.14Q387.52 1.73 382.14 1.73L382.14 1.73L382.14 1.73Q377.54 1.73 375.68-1.02L375.68-1.02L375.68-1.02Q374.98-2.11 374.98-3.65L374.98-3.65L374.98-3.65Q374.98-5.18 375.81-7.30L375.81-7.30L375.81-7.30Q377.41-10.94 382.66-14.78L382.66-14.78L382.66-14.78Q387.90-18.62 390.98-18.62Z" fill="#ccc"></path></g></g><style>text {
  font-size: 64px;
  font-family: Arial Black;
  dominant-baseline: central;
  text-anchor: middle;
}</style></svg>